# xmcd
#
# Track frame offsets: 
#        150
#        24567
#        30456
#        40169
#        45697
#        54666
#        65053
#        78583
#        90773
#        103174
#        110575
#        116472
#        130840
#        136016
#        153323
#        164502
#        177256
#        188732
#        197999
#        214154
#        221273
#        233486
#        243301
#        253351
#        266207
#        274353
#        284803
#        293027
#        305444
#        317477
#        324729
#        340422
#
# Disc length: 4685 seconds
#
# Revision: 3
# Processed by: cddbd v1.5.2PL0 Copyright (c) Steve Scherf et al.
# Submitted via: ExactAudioCopy v1.3
#
DISCID=e3124b20
DTITLE=Flatt and Scruggs - 1959 - 1963 [CD5)
DYEAR=1997
DGENRE=Bluegrass
TTITLE0=Salty Dog Blues
TTITLE1=Durham's Reel
TTITLE2=Down The Road
TTITLE3=Rainbow
TTITLE4=Big Ball In Brooklyn
TTITLE5=Flint Hill Special
TTITLE6=Dig A Hole In The Meadow
TTITLE7=I Hung My Head And Cried
TTITLE8=Hot Corn, Cold Corn
TTITLE9=Little Darlin' Pal of Mine
TTITLE10=You Can't Stop Me From Dreaming
TTITLE11=Footprints In The Snow
TTITLE12=The Martha White Theme
TTITLE13=I Wonder Where You Are Tonight
TTITLE14=Old McDonald Had A Farm
TTITLE15=He Will Set Your Fields On Fire
TTITLE16=Let The Church Roll On
TTITLE17=Wildwood Flower
TTITLE18=Hear That Whistle Blow (A Hundred Miles)
TTITLE19=Fiddle And Banjo
TTITLE20=Old Leather Britches
TTITLE21=Ballad Of Jed Clampett
TTITLE22=Yonder Stands Little Maggie
TTITLE23=Reuben
TTITLE24=Mama Blues
TTITLE25=I Know What It Means To Be Lonesome
TTITLE26=Foggy Mountain Rock
TTITLE27=Take This Hammer
TTITLE28=McKinley's Gone
TTITLE29=Roll In My Sweet Baby's Arms
TTITLE30=Gotta Travel On
TTITLE31=Mountain Dew
EXTD=
EXTT0=
EXTT1=
EXTT2=
EXTT3=
EXTT4=
EXTT5=
EXTT6=
EXTT7=
EXTT8=
EXTT9=
EXTT10=
EXTT11=
EXTT12=
EXTT13=
EXTT14=
EXTT15=
EXTT16=
EXTT17=
EXTT18=
EXTT19=
EXTT20=
EXTT21=
EXTT22=
EXTT23=
EXTT24=
EXTT25=
EXTT26=
EXTT27=
EXTT28=
EXTT29=
EXTT30=
EXTT31=
PLAYORDER=
